<svg width="48" height="49" viewBox="0 0 48 49" fill="none" xmlns="http://www.w3.org/2000/svg">
<path d="M22.1222 2.91402C23.2371 2.28264 24.6585 2.27989 25.7455 2.91402L42.3897 12.2974C43.4306 12.8828 44.1274 14.0436 44.1176 15.2436V34.0578C44.1246 35.3079 43.3596 36.4939 42.2615 37.068L25.7065 46.4083C25.636 46.4471 25.5645 46.4836 25.4916 46.5178C25.4189 46.5519 25.345 46.5836 25.27 46.6129C25.1951 46.642 25.1192 46.6688 25.0426 46.6929C24.9659 46.717 24.8885 46.7386 24.8102 46.7576C24.7321 46.7766 24.6535 46.793 24.5742 46.8068C24.495 46.8206 24.4154 46.8318 24.3354 46.8401C24.2555 46.8486 24.1752 46.8544 24.0949 46.8575C24.0146 46.8606 23.9342 46.8611 23.8539 46.8589C23.7734 46.8566 23.6932 46.8518 23.6131 46.8443C23.5331 46.8366 23.4534 46.8264 23.374 46.8135C23.2946 46.8006 23.2157 46.7851 23.1374 46.767C23.059 46.7489 22.9814 46.7283 22.9044 46.7049C22.8274 46.6816 22.7512 46.6558 22.676 46.6274C22.6007 46.599 22.5266 46.5683 22.4534 46.5349C22.3801 46.5016 22.3081 46.4659 22.2374 46.4278C22.1665 46.3896 22.097 46.3493 22.0289 46.3065L17.061 43.4356C16.7224 43.2335 16.342 43.0733 16.1022 42.7458C16.3141 42.4615 16.6904 42.4253 16.9969 42.2998C17.6881 42.0796 18.3207 41.7424 18.9562 41.3855C19.1165 41.2741 19.313 41.3159 19.4662 41.4163L23.7025 43.8663C24.005 44.0405 24.3115 43.8105 24.5707 43.6641L40.8261 34.4898C41.0269 34.3923 41.1382 34.1804 41.1216 33.9603V15.3271C41.1439 15.0764 41.0004 14.8478 40.7732 14.746L24.26 5.44627C24.2362 5.42989 24.2115 5.41539 24.1857 5.40277C24.1599 5.39014 24.1332 5.37952 24.1057 5.37089C24.0784 5.36239 24.0504 5.35589 24.022 5.35152C23.9935 5.34714 23.965 5.34489 23.9361 5.34477C23.9074 5.34477 23.8789 5.34689 23.8504 5.35114C23.8219 5.35539 23.794 5.36177 23.7665 5.37027C23.739 5.37864 23.7122 5.38914 23.6864 5.40177C23.6605 5.41427 23.6357 5.42864 23.612 5.44489L7.12237 14.7641C6.89949 14.8659 6.74612 15.0916 6.77399 15.3425V33.9755C6.75449 34.1958 6.87162 34.4034 7.07362 34.4981L11.48 36.9859C12.3077 37.4318 13.3236 37.6826 14.235 37.3551C14.2845 37.3365 14.3331 37.316 14.3811 37.2936C14.429 37.2713 14.476 37.2471 14.5221 37.2213C14.5682 37.1953 14.6134 37.1676 14.6574 37.1384C14.7014 37.109 14.7441 37.078 14.7859 37.0454C14.8275 37.0129 14.8679 36.9788 14.9069 36.943C14.946 36.9074 14.9836 36.8703 15.0199 36.8318C15.0561 36.7933 15.0909 36.7534 15.1241 36.7123C15.1574 36.6711 15.189 36.6288 15.219 36.5853C15.249 36.5416 15.2772 36.497 15.3039 36.4514C15.3305 36.4056 15.3554 36.359 15.3785 36.3114C15.4016 36.2638 15.4229 36.2154 15.4422 36.1661C15.4616 36.117 15.4791 36.0671 15.4947 36.0166C15.5104 35.966 15.5241 35.915 15.5359 35.8634C15.5476 35.8119 15.5574 35.7599 15.5651 35.7076C15.573 35.6553 15.5787 35.6028 15.5826 35.55C15.5865 35.4973 15.5882 35.4444 15.5881 35.3915L15.5922 16.87C15.5727 16.5954 15.8319 16.3683 16.0981 16.3961H18.2162C18.495 16.3891 18.7137 16.6846 18.6761 16.9605L18.6719 35.5991C18.6734 37.2548 17.9932 39.0554 16.4617 39.8679C14.575 40.8434 12.2422 40.6385 10.3776 39.7006L5.63974 37.0806C4.52487 36.5231 3.77662 35.319 3.78349 34.0704V15.2561C3.78412 15.1801 3.78724 15.1041 3.79287 15.0284C3.79849 14.9526 3.80662 14.877 3.81724 14.8018C3.82787 14.7265 3.84099 14.6516 3.85662 14.5773C3.87224 14.5029 3.89037 14.4291 3.91087 14.3559C3.93149 14.2828 3.95437 14.2103 3.97974 14.1386C4.00512 14.067 4.03274 13.9963 4.06287 13.9264C4.09287 13.8566 4.12524 13.7879 4.15987 13.7201C4.19449 13.6525 4.23137 13.5861 4.27037 13.5209C4.30937 13.4556 4.35062 13.3918 4.39387 13.3293C4.43724 13.2669 4.48249 13.2059 4.52987 13.1464C4.57724 13.0869 4.62649 13.0291 4.67774 12.9729C4.72887 12.9168 4.78187 12.8623 4.83674 12.8096C4.89149 12.757 4.94799 12.7063 5.00624 12.6573C5.06437 12.6084 5.12412 12.5615 5.18549 12.5165C5.24674 12.4716 5.30949 12.4288 5.37374 12.388C5.43787 12.3473 5.50324 12.3088 5.56999 12.2724L22.1222 2.91402ZM26.9216 15.9558C29.3282 15.8164 31.9049 15.8638 34.0704 17.0498C35.7467 17.9584 36.6762 19.8649 36.7069 21.7296C36.6595 21.9805 36.3975 22.1199 36.1579 22.1018C35.4611 22.1003 34.7615 22.1115 34.062 22.0975C33.7651 22.1086 33.5937 21.8355 33.5561 21.5735C33.3555 20.6816 32.8691 19.7994 32.0302 19.3688C30.7426 18.7235 29.2487 18.7555 27.8441 18.7695C26.8185 18.8253 25.7162 18.913 24.848 19.5151C24.1791 19.9723 23.9785 20.9088 24.2167 21.6363C24.4397 22.17 25.057 22.3414 25.5601 22.5003C28.4615 23.2584 31.5341 23.1971 34.3811 24.1824C35.5586 24.5894 36.7111 25.381 37.1152 26.6144C37.642 28.2671 37.412 30.2434 36.2372 31.5701C35.2841 32.6628 33.8961 33.2425 32.5096 33.5798C30.666 33.9909 28.7541 34.0006 26.8826 33.8166C25.1225 33.616 23.2915 33.1533 21.9327 31.9548C20.7706 30.9458 20.2049 29.3738 20.2605 27.8575C20.2745 27.601 20.5295 27.4226 20.7761 27.4435H22.8665C23.148 27.424 23.3541 27.6665 23.3681 27.9313C23.4977 28.7675 23.8169 29.6734 24.5581 30.1611C25.9879 31.0838 27.7814 31.0196 29.4174 31.0461C30.7732 30.9861 32.295 30.968 33.4029 30.0705C33.9881 29.5591 34.1595 28.7048 34.0021 27.9689C33.8306 27.3474 33.166 27.0589 32.6086 26.854C29.7449 25.9481 26.6374 26.277 23.8015 25.2514C22.6505 24.8444 21.537 24.0751 21.0952 22.8919C20.478 21.2195 20.7609 19.1471 22.061 17.865C23.3151 16.5899 25.1546 16.0979 26.8965 15.9223L26.9216 15.9558Z" fill="#8CC84B"/>
</svg>
