<svg width="48" height="49" viewBox="0 0 48 49" fill="none" xmlns="http://www.w3.org/2000/svg">
<path d="M28.0181 24.6557C28.0181 24.7214 28.0165 24.7873 28.0132 24.8529C28.01 24.9187 28.0052 24.9843 27.9987 25.0498C27.9924 25.1153 27.9842 25.1807 27.9746 25.2457C27.965 25.3108 27.9537 25.3757 27.9409 25.4402C27.928 25.5048 27.9136 25.5689 27.8976 25.6328C27.8816 25.6967 27.8641 25.76 27.845 25.823C27.8259 25.886 27.8052 25.9484 27.7831 26.0104C27.7609 26.0724 27.7372 26.1338 27.7121 26.1945C27.6869 26.2554 27.6602 26.3155 27.6321 26.375C27.604 26.4345 27.5744 26.4933 27.5434 26.5513C27.5124 26.6094 27.48 26.6667 27.4461 26.723C27.4122 26.7795 27.3771 26.8352 27.3405 26.8898C27.304 26.9445 27.2661 26.9983 27.2269 27.0512C27.1877 27.104 27.1472 27.1559 27.1055 27.2068C27.0637 27.2577 27.0207 27.3075 26.9766 27.3563C26.9324 27.405 26.8871 27.4527 26.8405 27.4992C26.794 27.5458 26.7464 27.5912 26.6976 27.6353C26.6489 27.6795 26.599 27.7225 26.5482 27.7643C26.4974 27.806 26.4455 27.8464 26.3926 27.8857C26.3397 27.9249 26.286 27.9628 26.2312 27.9993C26.1766 28.0359 26.121 28.071 26.0645 28.1049C26.0081 28.1388 25.9509 28.1712 25.8929 28.2022C25.8349 28.2333 25.7761 28.2628 25.7166 28.2909C25.6571 28.3192 25.597 28.3458 25.5362 28.3709C25.4754 28.3962 25.414 28.4198 25.3521 28.442C25.2901 28.4642 25.2276 28.4848 25.1647 28.5039C25.1017 28.523 25.0384 28.5405 24.9745 28.5565C24.9106 28.5725 24.8465 28.5869 24.782 28.5998C24.7174 28.6127 24.6526 28.6239 24.5875 28.6335C24.5225 28.6432 24.4571 28.6513 24.3916 28.6577C24.3262 28.6642 24.2606 28.669 24.1949 28.6722C24.1291 28.6754 24.0634 28.677 23.9976 28.677C23.9317 28.677 23.866 28.6754 23.8004 28.6722C23.7346 28.669 23.669 28.6642 23.6035 28.6577C23.538 28.6513 23.4727 28.6432 23.4076 28.6335C23.3426 28.6239 23.2777 28.6127 23.2132 28.5998C23.1487 28.5869 23.0845 28.5725 23.0207 28.5565C22.9569 28.5405 22.8935 28.523 22.8305 28.5039C22.7675 28.4848 22.7051 28.4642 22.6431 28.442C22.5811 28.4198 22.5197 28.3962 22.459 28.3709C22.3982 28.3458 22.3381 28.3192 22.2786 28.2909C22.2191 28.2628 22.1604 28.2333 22.1024 28.2022C22.0444 28.1712 21.9871 28.1388 21.9306 28.1049C21.8742 28.071 21.8186 28.0359 21.7639 27.9993C21.7092 27.9628 21.6554 27.9249 21.6026 27.8857C21.5497 27.8464 21.4979 27.806 21.447 27.7643C21.3961 27.7225 21.3464 27.6795 21.2976 27.6353C21.2489 27.5912 21.2012 27.5458 21.1546 27.4992C21.1081 27.4527 21.0627 27.405 21.0186 27.3563C20.9744 27.3075 20.9315 27.2577 20.8897 27.2068C20.848 27.1559 20.8075 27.104 20.7682 27.0512C20.7291 26.9983 20.6912 26.9445 20.6546 26.8898C20.6181 26.8352 20.5829 26.7795 20.5491 26.723C20.5152 26.6667 20.4829 26.6094 20.4519 26.5513C20.4207 26.4933 20.3912 26.4345 20.3631 26.375C20.335 26.3155 20.3082 26.2554 20.2831 26.1945C20.258 26.1338 20.2342 26.0724 20.2121 26.0104C20.1899 25.9484 20.1692 25.886 20.1502 25.823C20.1311 25.76 20.1135 25.6967 20.0976 25.6328C20.0816 25.5689 20.0671 25.5048 20.0544 25.4402C20.0415 25.3757 20.0302 25.3108 20.0206 25.2457C20.011 25.1807 20.0029 25.1153 19.9965 25.0498C19.99 24.9843 19.9851 24.9187 19.9819 24.8529C19.9787 24.7873 19.9771 24.7214 19.9771 24.6557C19.9771 24.5898 19.9787 24.524 19.9819 24.4583C19.9851 24.3925 19.99 24.327 19.9965 24.2615C20.0029 24.196 20.011 24.1307 20.0206 24.0655C20.0302 24.0005 20.0415 23.9357 20.0544 23.8712C20.0671 23.8065 20.0816 23.7424 20.0976 23.6785C20.1135 23.6147 20.1311 23.5513 20.1502 23.4883C20.1692 23.4253 20.1899 23.3628 20.2121 23.3009C20.2342 23.2389 20.258 23.1775 20.2831 23.1167C20.3082 23.0559 20.335 22.9958 20.3631 22.9363C20.3912 22.8768 20.4207 22.818 20.4519 22.7599C20.4829 22.7019 20.5152 22.6447 20.5491 22.5882C20.5829 22.5318 20.6181 22.4762 20.6546 22.4214C20.6912 22.3668 20.7291 22.3129 20.7682 22.26C20.8075 22.2073 20.848 22.1554 20.8897 22.1045C20.9315 22.0537 20.9744 22.0038 21.0186 21.955C21.0627 21.9063 21.1081 21.8587 21.1546 21.812C21.2012 21.7655 21.2489 21.7202 21.2976 21.676C21.3464 21.6318 21.3961 21.5888 21.447 21.547C21.4979 21.5053 21.5497 21.4648 21.6026 21.4257C21.6554 21.3864 21.7092 21.3485 21.7639 21.3119C21.8186 21.2754 21.8742 21.2402 21.9306 21.2064C21.9871 21.1725 22.0444 21.1402 22.1024 21.109C22.1604 21.078 22.2191 21.0484 22.2786 21.0203C22.3381 20.9922 22.3982 20.9655 22.459 20.9403C22.5197 20.9152 22.5811 20.8915 22.6431 20.8693C22.7051 20.8472 22.7675 20.8265 22.8305 20.8074C22.8935 20.7883 22.9569 20.7708 23.0207 20.7548C23.0845 20.7388 23.1487 20.7243 23.2132 20.7115C23.2777 20.6987 23.3426 20.6874 23.4076 20.6778C23.4727 20.6682 23.538 20.66 23.6035 20.6535C23.669 20.6472 23.7346 20.6423 23.8004 20.639C23.866 20.6358 23.9317 20.6343 23.9976 20.6343C24.0634 20.6343 24.1291 20.6358 24.1949 20.639C24.2606 20.6423 24.3262 20.6472 24.3916 20.6535C24.4571 20.66 24.5225 20.6682 24.5875 20.6778C24.6526 20.6874 24.7174 20.6987 24.782 20.7115C24.8465 20.7243 24.9106 20.7388 24.9745 20.7548C25.0384 20.7708 25.1017 20.7883 25.1647 20.8074C25.2276 20.8265 25.2901 20.8472 25.3521 20.8693C25.414 20.8915 25.4754 20.9152 25.5362 20.9403C25.597 20.9655 25.6571 20.9922 25.7166 21.0203C25.7761 21.0484 25.8349 21.078 25.8929 21.109C25.9509 21.14 26.0081 21.1725 26.0645 21.2064C26.121 21.2402 26.1766 21.2754 26.2312 21.3119C26.286 21.3485 26.3397 21.3864 26.3926 21.4257C26.4455 21.4648 26.4974 21.5053 26.5482 21.547C26.599 21.5888 26.6489 21.6318 26.6976 21.6759C26.7464 21.7202 26.794 21.7655 26.8405 21.812C26.8871 21.8587 26.9324 21.9063 26.9766 21.955C27.0207 22.0038 27.0637 22.0537 27.1055 22.1045C27.1472 22.1554 27.1877 22.2073 27.2269 22.26C27.2661 22.3129 27.304 22.3668 27.3405 22.4214C27.3771 22.4762 27.4122 22.5318 27.4461 22.5883C27.48 22.6447 27.5124 22.7019 27.5434 22.7599C27.5744 22.818 27.604 22.8768 27.6321 22.9363C27.6602 22.9958 27.6869 23.0559 27.7121 23.1167C27.7372 23.1775 27.7609 23.2389 27.7831 23.3009C27.8052 23.3628 27.8259 23.4253 27.845 23.4883C27.8641 23.5513 27.8816 23.6147 27.8976 23.6785C27.9136 23.7424 27.928 23.8065 27.9409 23.8712C27.9537 23.9357 27.965 24.0005 27.9746 24.0655C27.9842 24.1307 27.9924 24.196 27.9987 24.2615C28.0052 24.327 28.01 24.3925 28.0132 24.4583C28.0165 24.524 28.0181 24.5898 28.0181 24.6557Z" fill="#00D8FF"/>
<path d="M23.9977 16.4788C29.3958 16.4788 34.4106 17.2535 38.1917 18.5555C42.7475 20.1243 45.5483 22.502 45.5483 24.6551C45.5483 26.8988 42.58 29.4249 37.6877 31.0461C33.9892 32.2719 29.1221 32.9116 23.9977 32.9116C18.7441 32.9116 13.7692 32.3111 10.0288 31.0328C5.29684 29.4149 2.44659 26.8561 2.44659 24.6551C2.44659 22.5195 5.12097 20.16 9.61259 18.5936C13.4077 17.2703 18.5461 16.4788 23.9973 16.4788H23.9977Z" stroke="#00D8FF" stroke-width="2"/>
<path d="M16.8822 20.5898C19.5789 15.9127 22.755 11.9549 25.7715 9.32893C29.406 6.16543 32.8642 4.92643 34.7292 6.00193C36.6724 7.12281 37.3772 10.9571 36.3373 16.0061C35.5519 19.8231 33.6739 24.3596 31.1139 28.7997C28.4893 33.3518 25.4839 37.3624 22.5083 39.9637C18.7432 43.2557 15.1031 44.4471 13.1973 43.3474C11.3476 42.2813 10.6403 38.7847 11.5276 34.1106C12.2773 30.1611 14.1588 25.3137 16.8811 20.5907L16.8822 20.5898Z" stroke="#00D8FF" stroke-width="2"/>
<path d="M16.8887 28.8114C14.1847 24.1395 12.343 19.4101 11.5744 15.4846C10.6493 10.7551 11.3034 7.13913 13.1664 6.06013C15.1078 4.936 18.7808 6.24 22.6344 9.6625C25.5482 12.2501 28.54 16.1425 31.1072 20.578C33.7393 25.1258 35.7122 29.7331 36.4795 33.6105C37.4507 38.5174 36.6647 42.2663 34.7603 43.3693C32.9124 44.4393 29.5309 43.3065 25.9253 40.203C22.8789 37.5809 19.6195 33.5294 16.8884 28.8105L16.8887 28.8114Z" stroke="#00D8FF" stroke-width="2"/>
</svg>
